<svg width="288" height="72" viewBox="0 0 288 72" fill="none" xmlns="http://www.w3.org/2000/svg" xmlns:xlink="http://www.w3.org/1999/xlink">
<path d="M68.17 34.19C68.17 30.35 71.35 27.68 75.97 27.68C80.41 27.68 83.23 30.14 83.35 34.1H79.51C79.42 32.21 78.07 31.1 75.91 31.1C73.54 31.1 72.01 32.24 72.01 34.07C72.01 35.63 72.85 36.5 74.68 36.92L78.13 37.67C81.88 38.48 83.71 40.4 83.71 43.67C83.71 47.75 80.53 50.39 75.7 50.39C71.02 50.39 67.96 47.9 67.87 43.97H71.71C71.74 45.83 73.24 46.94 75.7 46.94C78.25 46.94 79.87 45.83 79.87 44C79.87 42.53 79.12 41.66 77.32 41.27L73.84 40.49C70.12 39.68 68.17 37.55 68.17 34.19ZM91.0239 28.07V50H87.1839V28.07H91.0239ZM103.821 41.99V28.07H107.661V41.75C107.661 44.9 109.371 46.64 112.491 46.64C115.611 46.64 117.351 44.87 117.351 41.75V28.07H121.191V41.99C121.191 47.12 117.831 50.36 112.491 50.36C107.181 50.36 103.821 47.15 103.821 41.99ZM129.634 50H125.914V28.07H129.634L136.714 45.53L143.794 28.07H147.574V50H143.854V43.25C143.854 38.84 143.854 37.55 144.064 35.99L138.484 50H134.944L129.394 36.02C129.604 37.34 129.634 39.41 129.634 42.14V50ZM156.268 28.07V39.59L165.148 28.07H169.678L162.418 37.43L169.768 50H165.328L159.898 40.67L156.268 45.32V50H152.428V28.07H156.268ZM176.363 50H172.643V28.07H176.363L183.443 45.53L190.523 28.07H194.303V50H190.583V43.25C190.583 38.84 190.583 37.55 190.793 35.99L185.213 50H181.673L176.123 36.02C176.333 37.34 176.363 39.41 176.363 42.14V50Z" fill="#1C2434"/>
<rect width="68" height="60" fill="url(#pattern0)"/>
<defs>
<pattern id="pattern0" patternContentUnits="objectBoundingBox" width="1" height="1">
<use xlink:href="#image0_58_514" transform="matrix(0.00343137 0 0 0.00388889 0 -1.6)"/>
</pattern>
</defs>
</svg>
