<svg width="128" height="24" viewBox="0 0 128 24" fill="none" xmlns="http://www.w3.org/2000/svg">
<path d="M1.17 7.19C1.17 3.35 4.35 0.679999 8.97 0.679999C13.41 0.679999 16.23 3.14 16.35 7.1H12.51C12.42 5.21 11.07 4.1 8.91 4.1C6.54 4.1 5.01 5.24 5.01 7.07C5.01 8.63 5.85 9.5 7.68 9.92L11.13 10.67C14.88 11.48 16.71 13.4 16.71 16.67C16.71 20.75 13.53 23.39 8.7 23.39C4.02 23.39 0.96 20.9 0.87 16.97H4.71C4.74 18.83 6.24 19.94 8.7 19.94C11.25 19.94 12.87 18.83 12.87 17C12.87 15.53 12.12 14.66 10.32 14.27L6.84 13.49C3.12 12.68 1.17 10.55 1.17 7.19ZM24.0239 1.07V23H20.1839V1.07H24.0239ZM36.821 14.99V1.07H40.661V14.75C40.661 17.9 42.371 19.64 45.491 19.64C48.611 19.64 50.351 17.87 50.351 14.75V1.07H54.191V14.99C54.191 20.12 50.831 23.36 45.491 23.36C40.181 23.36 36.821 20.15 36.821 14.99ZM62.6344 23H58.9144V1.07H62.6344L69.7144 18.53L76.7944 1.07H80.5744V23H76.8544V16.25C76.8544 11.84 76.8544 10.55 77.0644 8.99L71.4844 23H67.9444L62.3944 9.02C62.6044 10.34 62.6344 12.41 62.6344 15.14V23ZM89.268 1.07V12.59L98.148 1.07H102.678L95.418 10.43L102.768 23H98.328L92.898 13.67L89.268 18.32V23H85.428V1.07H89.268ZM109.363 23H105.643V1.07H109.363L116.443 18.53L123.523 1.07H127.303V23H123.583V16.25C123.583 11.84 123.583 10.55 123.793 8.99L118.213 23H114.673L109.123 9.02C109.333 10.34 109.363 12.41 109.363 15.14V23Z" fill="#1C2434"/>
</svg>
